<svg width="88" height="88" viewBox="0 0 88 88" fill="none" xmlns="http://www.w3.org/2000/svg">
<circle cx="44" cy="44" r="44" fill="#2C2C2C"/>
<circle cx="44" cy="44.0001" r="32.2667" fill="#C14E21"/>
<g clip-path="url(#clip0_1_181)">
<path d="M44 26.3999C39.2187 26.3999 38.6217 26.4219 36.7444 26.5055C34.87 26.5935 33.594 26.8883 32.472 27.3239C31.3148 27.7727 30.3321 28.3755 29.3539 29.3538C28.3756 30.332 27.7713 31.3132 27.324 32.4719C26.8884 33.5939 26.5921 34.8699 26.5056 36.7443C26.4176 38.6216 26.4 39.2186 26.4 43.9999C26.4 48.7812 26.422 49.3782 26.5056 51.2555C26.5936 53.1284 26.8884 54.4059 27.324 55.5279C27.7728 56.6836 28.3756 57.6678 29.3539 58.646C30.3321 59.6228 31.3133 60.2286 32.472 60.6759C33.5955 61.11 34.8715 61.4078 36.7444 61.4943C38.6217 61.5823 39.2187 61.5999 44 61.5999C48.7813 61.5999 49.3783 61.5779 51.2556 61.4943C53.1285 61.4063 54.406 61.11 55.528 60.6759C56.6837 60.2271 57.6679 59.6228 58.6461 58.646C59.6229 57.6678 60.2287 56.688 60.676 55.5279C61.1101 54.4059 61.4079 53.1284 61.4944 51.2555C61.5824 49.3782 61.6 48.7812 61.6 43.9999C61.6 39.2186 61.578 38.6216 61.4944 36.7443C61.4064 34.8714 61.1101 33.5924 60.676 32.4719C60.2272 31.3147 59.6229 30.332 58.6461 29.3538C57.6679 28.3755 56.6881 27.7712 55.528 27.3239C54.406 26.8883 53.1285 26.592 51.2556 26.5055C49.3783 26.4175 48.7813 26.3999 44 26.3999ZM44 29.5679C48.6977 29.5679 49.258 29.5914 51.1133 29.672C52.8293 29.7527 53.7607 30.0372 54.3796 30.2807C55.2039 30.599 55.7876 30.9803 56.4065 31.5948C57.0211 32.2108 57.4024 32.796 57.7207 33.6203C57.9612 34.2392 58.2487 35.1706 58.3264 36.8866C58.41 38.7434 58.4291 39.3007 58.4291 43.9999C58.4291 48.6991 58.4071 49.2579 58.3205 51.1132C58.2311 52.8292 57.9451 53.7606 57.7031 54.3795C57.3745 55.2038 57.0005 55.7875 56.3845 56.4064C55.77 57.021 55.176 57.4023 54.3605 57.7206C53.7445 57.9611 52.7985 58.2486 51.0825 58.3263C49.214 58.4099 48.664 58.429 43.956 58.429C39.2465 58.429 38.6965 58.407 36.8295 58.3204C35.112 58.231 34.166 57.945 33.55 57.703C32.7155 57.3744 32.142 57.0004 31.5275 56.3844C30.91 55.7699 30.5155 55.1759 30.2075 54.3604C29.9655 53.7444 29.6809 52.7984 29.5915 51.0824C29.5255 49.2344 29.502 48.6639 29.502 43.9779C29.502 39.2904 29.5255 38.7184 29.5915 36.8484C29.6809 35.1324 29.9655 34.1879 30.2075 33.5719C30.5155 32.7359 30.91 32.1639 31.5275 31.5464C32.142 30.9319 32.7155 30.5359 33.55 30.2294C34.166 29.9859 35.0915 29.6999 36.8075 29.6119C38.6775 29.5459 39.2275 29.5239 43.934 29.5239L44 29.5679V29.5679ZM44 34.9623C39.006 34.9623 34.9624 39.0103 34.9624 43.9999C34.9624 48.9939 39.0104 53.0375 44 53.0375C48.994 53.0375 53.0376 48.9895 53.0376 43.9999C53.0376 39.0059 48.9896 34.9623 44 34.9623ZM44 49.8666C40.7587 49.8666 38.1333 47.2412 38.1333 43.9999C38.1333 40.7586 40.7587 38.1332 44 38.1332C47.2413 38.1332 49.8667 40.7586 49.8667 43.9999C49.8667 47.2412 47.2413 49.8666 44 49.8666ZM55.5075 34.6059C55.5075 35.7719 54.56 36.7179 53.3955 36.7179C52.2295 36.7179 51.2835 35.7704 51.2835 34.6059C51.2835 33.4414 52.2309 32.4954 53.3955 32.4954C54.5585 32.4939 55.5075 33.4414 55.5075 34.6059Z" fill="white"/>
</g>
<defs>
<clipPath id="clip0_1_181">
<rect width="35.2" height="35.2" fill="white" transform="translate(26.4 26.3999)"/>
</clipPath>
</defs>
</svg>
